# This file uses centimeters as units for non-parametric coordinates.

mtllib CushionBase.mtl
g default
v 18.118649 -82.727453 -148.293716
v 18.118649 -82.727453 -229.484176
v -56.884899 -67.886892 -149.731216
v -57.305934 -68.903357 -149.731216
v -56.884899 -68.903357 -148.714752
v -55.868434 -68.903357 -148.293716
v -55.868434 -67.886892 -148.714752
v -55.868434 -67.465857 -149.731216
v 16.681153 -67.465857 -149.731216
v 17.697617 -67.886892 -148.714752
v 18.118649 -68.903357 -148.293716
v -56.884899 -68.903357 -229.063141
v -57.305934 -68.903357 -228.046676
v -56.884899 -67.886892 -228.046676
v -55.868434 -67.465857 -228.046676
v -55.868434 -67.886892 -229.063141
v -55.868434 -68.903357 -229.484176
v 16.681153 -67.465857 -228.046676
v 17.697617 -67.886892 -229.063141
v 18.118649 -68.903357 -229.484176
v -55.868434 -82.727453 -148.293716
v -56.884899 -82.306418 -148.714752
v -57.305934 -81.289953 -149.731216
v -57.305934 -81.289953 -228.046676
v -56.884899 -82.306418 -229.063141
v -55.868434 -82.727453 -229.484176
v -56.698085 -68.073706 -148.901565
v -56.698085 -68.073706 -228.876327
vt 0.194720 0.366449
vt 0.764862 0.309631
vt 0.764862 0.022648
vt 0.707597 0.309631
vt 0.711743 0.309631
vt 0.711743 0.022648
vt 0.216612 0.366449
vt 0.771653 0.366449
vt 0.771653 0.959990
vt 0.654478 0.309631
vt 0.654478 0.022648
vt 0.707597 0.022648
vt 0.262652 0.017987
vt 0.549634 0.017987
vt 0.549634 0.329961
vt 0.578109 0.337760
vt 0.578109 0.025786
vt 0.631227 0.337760
vt 0.100844 0.959990
vt 0.194720 0.959990
vt 0.631227 0.025786
vt 0.216612 0.959990
vt 0.262652 0.329961
vt 0.100844 0.366449
vt 0.205665 0.366390
vt 0.766808 0.315207
vt 0.198559 0.355554
vt 0.212364 0.355554
vt 0.770386 0.311785
vt 0.636751 0.337760
vt 0.782650 0.355554
vt 0.770386 0.022648
vt 0.198559 0.970885
vt 0.652532 0.315207
vt 0.205665 0.960048
vt 0.648954 0.311785
vt 0.212364 0.970885
vt 0.648954 0.022648
vt 0.782650 0.970885
vt 0.636751 0.025786
vt 0.089949 0.355554
vt 0.257076 0.329961
vt 0.711743 0.315207
vt 0.257076 0.017987
vt 0.089949 0.970885
vt 0.707597 0.315207
vt 0.205615 0.355554
vt 0.770386 0.315207
vt 0.205615 0.970885
vt 0.648954 0.315207
vn -0.999497 0.031251 0.005365
vn -0.924026 0.382317 0.003288
vn -0.924026 0.382317 -0.003288
vn -0.999497 0.031251 -0.005365
vn -0.382316 0.924026 0.003288
vn -0.005697 0.999970 0.005318
vn -0.005697 0.999970 -0.005318
vn -0.382316 0.924026 -0.003288
vn -0.005402 0.028164 0.999589
vn -0.380601 0.018091 0.924563
vn -0.382682 0.000000 0.923880
vn -0.004256 0.000000 0.999991
vn -0.924589 0.019043 0.380489
vn -0.998988 -0.044402 0.007217
vn -0.940593 -0.335138 0.054474
vn -0.003522 0.924036 0.382290
vn 0.206927 0.959619 0.190562
vn 0.008334 0.999936 0.007675
vn -0.003488 0.382294 0.924034
vn 0.000000 0.022057 0.999757
vn 0.000000 0.382685 0.923879
vn -0.924589 0.019043 -0.380490
vn -0.940593 -0.335138 -0.054474
vn -0.998988 -0.044402 -0.007217
vn -0.380604 0.018091 -0.924561
vn -0.005402 0.028164 -0.999589
vn -0.004256 0.000000 -0.999991
vn -0.382686 0.000000 -0.923879
vn 0.000000 0.000000 1.000000
vn 0.008334 0.999936 -0.007675
vn 0.000000 0.022057 -0.999757
vn 0.000000 0.000000 -1.000000
vn -0.004299 -0.999991 0.000000
vn 0.000000 -1.000000 0.000000
vn 0.000000 -1.000000 0.000000
vn -0.004299 -0.999991 0.000000
vn 1.000000 0.000000 0.000000
vn 1.000000 0.000000 0.000000
vn 0.999758 0.022008 0.000000
vn 0.999758 0.022008 0.000000
vn 0.206927 0.959619 -0.190562
vn 0.923881 0.382681 0.000000
vn 0.923881 0.382681 0.000000
vn -0.003488 0.382294 -0.924034
vn 0.000000 0.382685 -0.923879
vn -0.003522 0.924036 -0.382290
vn -0.382685 -0.923879 0.000000
vn -0.382685 -0.923879 0.000000
vn -0.325269 0.887919 0.325270
vn -0.887919 0.325269 0.325269
vn -0.325271 0.325270 0.887918
vn -0.325270 0.325270 -0.887918
vn -0.887919 0.325268 -0.325270
vn -0.325270 0.887919 -0.325270
s 1
g pCube1
usemtl texturedFacets
f 4/1/1 3/25/2 14/35/3 13/20/4
s 2
f 3/25/5 8/7/6 15/22/7 14/35/8
s 3
f 6/2/9 5/26/10 22/43/11 21/5/12
s 1
f 5/27/13 4/1/1 23/24/14 22/41/15
s 2
f 8/7/6 7/28/16 10/31/17 9/8/18
s 3
f 7/29/19 6/2/9 11/3/20 10/32/21
s 1
f 13/20/4 12/33/22 25/45/23 24/19/24
s 4
f 12/34/25 17/10/26 26/4/27 25/46/28
s 3
f 21/5/12 1/6/29 11/3/20 6/2/9
s 2
f 8/7/6 9/8/18 18/9/30 15/22/7
s 4
f 17/10/26 20/11/31 2/12/32 26/4/27
s 5
f 26/13/33 2/14/34 1/15/35 21/23/36
s 6
f 1/16/37 2/17/38 20/21/39 11/18/40
s 1
f 24/19/24 23/24/14 4/1/1 13/20/4
s 2
f 9/8/18 10/31/17 19/39/41 18/9/30
s 6
f 10/30/42 11/18/40 20/21/39 19/40/43
s 4
f 17/10/26 16/36/44 19/38/45 20/11/31
s 2
f 16/37/46 15/22/7 18/9/30 19/39/41
s 5
f 21/23/36 22/42/47 25/44/48 26/13/33
s 1
f 22/41/15 23/24/14 24/19/24 25/45/23
s 2
f 7/28/16 8/7/6 3/25/5 27/47/49
s 1
f 3/25/2 4/1/1 5/27/13 27/47/50
s 3
f 5/26/10 6/2/9 7/29/19 27/48/51
s 4
f 16/36/44 17/10/26 12/34/25 28/50/52
s 1
f 12/33/22 13/20/4 14/35/3 28/49/53
s 2
f 14/35/8 15/22/7 16/37/46 28/49/54
